<?xml version="1.0" encoding="UTF-8" standalone="no"?><!-- Generator: Gravit.io --><svg xmlns="http://www.w3.org/2000/svg" xmlns:xlink="http://www.w3.org/1999/xlink" style="isolation:isolate" viewBox="0 0 128 128" width="128pt" height="128pt"><defs><clipPath id="_clipPath_WN0OSZtsnP5TG8ZsBMysvvCdN7FNNRvJ"><rect width="128" height="128"/></clipPath></defs><g clip-path="url(#_clipPath_WN0OSZtsnP5TG8ZsBMysvvCdN7FNNRvJ)"><circle vector-effect="non-scaling-stroke" cx="63.958130031513015" cy="63.999999999999986" r="58.52338320924851" fill="rgb(251,203,148)" stroke-width="6" stroke="rgb(251,203,148)" stroke-linejoin="miter" stroke-linecap="square" stroke-miterlimit="3"/><linearGradient id="_lgradient_0" x1="0" y1="0.5" x2="1" y2="0.5" gradientTransform="matrix(87.61,0,0,20.808,19.981,104.712)" gradientUnits="userSpaceOnUse"><stop offset="18.26086956521739%" stop-opacity="1" style="stop-color:rgb(69,41,9)"/><stop offset="34.34782608695652%" stop-opacity="1" style="stop-color:rgb(130,77,16)"/><stop offset="100%" stop-opacity="1" style="stop-color:rgb(0,0,0)"/></linearGradient><path d=" M 27.122 105.487 C 31.645 109.519 36.803 112.786 42.4 115.16 C 49.23 118.04 56.58 119.53 64 119.52 L 64 119.52 C 64 119.52 64 119.52 64 119.52 C 71.42 119.53 78.77 118.04 85.6 115.16 C 91.554 112.634 97.012 109.098 101.743 104.712 L 107.591 107.406 L 107.591 107.406 C 107.562 107.438 107.531 107.469 107.5 107.5 C 101.89 113.11 95.25 117.59 87.94 120.68 C 80.36 123.88 72.22 125.53 64 125.52 C 55.78 125.53 47.64 123.88 40.06 120.68 C 32.75 117.59 26.11 113.11 20.5 107.5 C 20.324 107.324 20.149 107.147 19.981 106.964 L 27.122 105.487 L 27.122 105.487 Z " fill="url(#_lgradient_0)"/><linearGradient id="_lgradient_1" x1="0" y1="0.5" x2="1" y2="0.5" gradientTransform="matrix(87.61,0,0,20.808,19.981,104.712)" gradientUnits="userSpaceOnUse"><stop offset="1.7391304347826086%" stop-opacity="1" style="stop-color:rgb(223,172,113)"/><stop offset="37.826086956521735%" stop-opacity="1" style="stop-color:rgb(128,76,16)"/><stop offset="60.86956521739131%" stop-opacity="1" style="stop-color:rgb(132,80,20)"/><stop offset="98.26086956521739%" stop-opacity="1" style="stop-color:rgb(213,165,110)"/></linearGradient><path d=" M 27.122 105.487 C 31.645 109.519 36.803 112.786 42.4 115.16 C 49.23 118.04 56.58 119.53 64 119.52 L 64 119.52 C 64 119.52 64 119.52 64 119.52 C 71.42 119.53 78.77 118.04 85.6 115.16 C 91.554 112.634 97.012 109.098 101.743 104.712 L 107.591 107.406 L 107.591 107.406 C 107.562 107.438 107.531 107.469 107.5 107.5 C 101.89 113.11 95.25 117.59 87.94 120.68 C 80.36 123.88 72.22 125.53 64 125.52 C 55.78 125.53 47.64 123.88 40.06 120.68 C 32.75 117.59 26.11 113.11 20.5 107.5 C 20.324 107.324 20.149 107.147 19.981 106.964 L 27.122 105.487 L 27.122 105.487 Z " fill="url(#_lgradient_1)"/><g opacity="0.72"><linearGradient id="_lgradient_2" x1="-0.017704661182922" y1="0.5" x2="1.000313356835096" y2="0.5" gradientTransform="matrix(123.04,0,0,68.494,2.48,2.48)" gradientUnits="userSpaceOnUse"><stop offset="1.7391304347826086%" stop-opacity="1" style="stop-color:rgb(223,172,113)"/><stop offset="22.908559735346536%" stop-opacity="1" style="stop-color:rgb(128,76,16)"/><stop offset="75.73687088113779%" stop-opacity="1" style="stop-color:rgb(132,80,20)"/><stop offset="98.26086956521739%" stop-opacity="1" style="stop-color:rgb(213,165,110)"/></linearGradient><path d=" M 125.083 70.974 C 125.392 68.667 125.523 66.336 125.52 64 C 125.53 55.78 123.88 47.64 120.68 40.06 C 117.59 32.75 113.11 26.11 107.5 20.5 C 102.533 15.533 96.759 11.452 90.427 8.437 C 89.607 8.047 88.778 7.674 87.94 7.32 C 80.36 4.12 72.22 2.47 64 2.48 C 55.78 2.47 47.64 4.12 40.06 7.32 C 32.75 10.41 26.11 14.89 20.5 20.5 C 14.89 26.11 10.41 32.75 7.32 40.06 C 4.12 47.64 2.47 55.78 2.48 64 C 2.477 66.176 2.591 68.347 2.869 70.497 L 8.788 69.453 C 8.565 67.648 8.478 65.826 8.48 64 C 8.47 56.58 9.96 49.23 12.84 42.4 C 15.64 35.8 19.68 29.81 24.75 24.75 C 29.81 19.68 35.8 15.64 42.4 12.84 C 49.23 9.95 56.58 8.47 64 8.48 C 71.42 8.47 78.77 9.95 85.6 12.84 C 92.2 15.64 98.19 19.68 103.25 24.75 C 108.32 29.81 112.36 35.8 115.16 42.4 C 118.04 49.23 119.53 56.58 119.52 64 C 119.52 64 119.52 64 119.52 64 L 119.52 64 L 119.52 64 C 119.522 65.586 119.456 67.169 119.282 68.739 L 125.083 70.974 L 125.083 70.974 Z  M 125.52 64 C 125.52 64 125.52 64 125.52 64 L 125.52 64 L 125.52 64 Z " fill-rule="evenodd" fill="url(#_lgradient_2)"/></g><path d=" M 125.52 64 M 64 119.52 M 64 125.52 M 64 125.52 M 64 125.52 M 64 125.52 M 64 119.52" fill-rule="evenodd" fill="rgb(130,77,16)"/><linearGradient id="_lgradient_3" x1="0.999999999999998" y1="0.9788901389178489" x2="0.9999999999999981" y2="0.7545978649199951"><stop offset="0%" stop-opacity="0.24" style="stop-color:rgb(87,87,87)"/><stop offset="100%" stop-opacity="1" style="stop-color:rgb(64,64,64)"/></linearGradient><path d=" M 102.75 57.943 L 102.75 57.943 C 110.15 57.943 116.159 63.541 116.159 70.437 L 116.159 129" fill="none" vector-effect="non-scaling-stroke" stroke-width="4" stroke-dasharray="0.5,5" stroke="url(#_lgradient_3)" stroke-linejoin="miter" stroke-linecap="round" stroke-miterlimit="3"/><g opacity="0.4"><path d=" M 8.336 91.041 C 8.418 91.737 8.659 92.42 9.067 93.03 C 10.273 94.549 12.132 95.401 14.07 95.323 C 16.801 94.933 19.273 93.499 20.967 91.322 C 24.556 86.945 28.426 82.807 32.553 78.934 C 36.105 75.782 40.512 73.757 45.217 73.114 C 49.678 72.483 54.219 73.429 58.057 75.788 C 59.96 77.044 61.646 78.601 63.048 80.399 L 63.958 88.399 L 63.958 88.399 C 62.849 88.531 61.74 88.658 60.642 88.861 C 58.284 89.335 56.002 90.135 53.864 91.236 C 46.705 94.39 40.451 99.196 33.587 102.844 C 27.788 106.077 21.184 107.584 14.556 107.188 C 10.791 106.996 7.194 105.563 4.328 103.113 C 1.988 100.875 0.564 97.846 0.333 94.616 C -0.088 92.458 0.074 90.242 0.81 88.201 L 8.336 91.041 L 8.336 91.041 Z " fill="rgb(0,0,0)"/></g><g opacity="0.4"><path d=" M 127.637 89.038 C 128.108 90.846 128.179 92.752 127.815 94.616 C 127.585 97.846 126.161 100.875 123.82 103.113 C 120.954 105.563 117.358 106.996 113.592 107.188 C 106.964 107.584 100.361 106.077 94.561 102.844 C 87.698 99.196 81.444 94.39 74.285 91.236 C 72.146 90.135 69.865 89.335 67.506 88.861 C 66.408 88.658 65.299 88.531 64.19 88.399 L 64.19 88.399 L 65.101 80.399 C 66.503 78.601 68.188 77.044 70.092 75.788 C 73.93 73.429 78.471 72.483 82.932 73.114 C 87.636 73.757 92.044 75.782 95.596 78.934 C 99.722 82.807 103.593 86.945 107.181 91.322 C 108.875 93.499 111.348 94.933 114.078 95.323 C 116.016 95.401 117.875 94.549 119.081 93.03 C 119.765 92.008 119.982 90.777 119.731 89.627 L 127.637 89.038 L 127.637 89.038 Z " fill="rgb(0,0,0)"/></g><path d=" M 47.066 71.015 C 51.569 70.893 55.974 72.346 59.521 75.124 C 61.27 76.587 62.769 78.325 63.959 80.27 C 66.091 76.652 69.366 73.845 73.268 72.294 C 78.121 70.539 83.44 70.57 88.271 72.38 C 92.399 74.037 96.182 76.45 99.425 79.494 C 102.019 81.777 104.42 84.288 107.091 86.493 C 108.465 87.694 110.04 88.643 111.744 89.296 C 114.114 90.045 116.703 89.373 118.41 87.566 C 119.938 85.804 119.828 83.155 118.159 81.525 C 117.622 81.073 116.919 80.869 116.223 80.963 C 115.527 81.057 114.904 81.44 114.506 82.019 C 113.988 83.023 114.076 84.232 114.734 85.151 C 113.201 84.257 112.184 82.688 111.995 80.923 C 111.862 78.82 113.155 76.889 115.15 76.211 C 118.948 74.761 123.248 75.99 125.706 79.229 C 127.663 82.369 128.379 86.126 127.715 89.767 C 127.236 93.209 125.358 96.302 122.523 98.314 C 118.438 100.951 113.623 102.23 108.767 101.966 C 104.169 101.809 99.636 100.835 95.38 99.09 C 88.267 96.232 81.61 92.278 74.264 89.995 C 71.713 89.282 69.121 88.728 66.502 88.337 C 64.539 88.369 62.571 88.269 60.612 88.406 C 58.215 88.61 55.858 89.147 53.609 89.999 C 46.139 92.323 39.382 96.391 32.15 99.24 C 26.022 101.797 19.291 102.548 12.75 101.405 C 9.03 100.788 5.619 98.958 3.048 96.2 C 0.975 93.711 -0.097 90.541 0.039 87.306 C -0.205 84.238 0.698 81.19 2.573 78.75 C 4.491 76.536 7.358 75.38 10.275 75.645 C 12.161 75.695 13.932 76.562 15.129 78.019 C 15.95 79.244 16.156 80.781 15.686 82.178 C 15.151 83.389 14.267 84.413 13.147 85.119 C 13.814 84.213 13.905 83.005 13.38 82.009 C 12.961 81.407 12.297 81.019 11.567 80.95 C 10.836 80.88 10.111 81.136 9.586 81.649 C 8.312 83.024 8.036 85.051 8.897 86.717 C 9.923 88.362 11.674 89.419 13.608 89.561 C 16.365 89.482 18.984 88.336 20.913 86.365 C 24.974 82.422 29.287 78.748 33.825 75.366 C 37.711 72.637 42.319 71.122 47.066 71.015 Z " fill="rgb(219,55,0)"/><path d=" M 72.39 82.37 C 71.84 82.73 71.16 82.85 70.51 82.71 C 69.86 82.58 69.3 82.18 68.94 81.63 C 68.58 81.07 68.45 80.39 68.59 79.75 C 68.73 79.1 69.12 78.53 69.68 78.17 C 70.97 77.33 72.36 76.66 73.82 76.15 C 75.66 75.51 77.56 75.04 79.49 74.73 C 80.28 74.61 81.08 74.55 81.88 74.55 C 84.02 74.57 86.15 74.98 88.15 75.73 C 90.12 76.48 91.99 77.44 93.75 78.6 C 95.46 79.72 97.1 80.96 98.64 82.31 C 100.06 83.54 101.43 84.82 102.75 86.16 C 103.22 86.63 103.48 87.27 103.47 87.93 C 103.47 88.59 103.2 89.23 102.73 89.69 C 102.26 90.16 101.62 90.42 100.96 90.42 C 100.3 90.41 99.66 90.14 99.2 89.67 C 97.96 88.43 96.69 87.23 95.36 86.08 C 93.98 84.88 92.53 83.77 91 82.77 C 89.55 81.81 88 81.02 86.38 80.41 C 84.93 79.86 83.4 79.57 81.85 79.55 C 81.32 79.55 80.79 79.59 80.27 79.67 C 78.63 79.93 77.02 80.33 75.46 80.87 C 74.38 81.25 73.35 81.75 72.39 82.37 Z " fill="rgb(255,94,0)"/><linearGradient id="_lgradient_4" x1="0.21350654318854728" y1="0.19148937064899074" x2="0.8411661176566323" y2="0.7606383068192034" gradientTransform="matrix(35.25,0,0,35.25,67.661,38.125)" gradientUnits="userSpaceOnUse"><stop offset="1.3043478260869565%" stop-opacity="1" style="stop-color:rgb(240,251,255)"/><stop offset="98.69565217391305%" stop-opacity="1" style="stop-color:rgb(135,176,204)"/></linearGradient><linearGradient id="_lgradient_5" x1="0.12308101127365358" y1="0.16666667561352946" x2="0.8748540609190437" y2="0.8971631295142386"><stop offset="0.8695652173913043%" stop-opacity="1" style="stop-color:rgb(115,100,88)"/><stop offset="98.26086956521739%" stop-opacity="1" style="stop-color:rgb(51,50,50)"/></linearGradient><circle vector-effect="non-scaling-stroke" cx="85.28639435260371" cy="55.74999968462308" r="17.625" fill="url(#_lgradient_4)" stroke-width="3" stroke="url(#_lgradient_5)" stroke-linejoin="miter" stroke-linecap="square" stroke-miterlimit="3"/><path d=" M 90.891 64.634 C 90.041 65.171 89.107 65.573 88.122 65.837" fill="none" vector-effect="non-scaling-stroke" stroke-width="3.812" stroke="rgb(255,255,255)" stroke-linejoin="miter" stroke-linecap="round" stroke-miterlimit="3"/><path d=" M 95.706 53.507 C 95.873 54.168 95.943 54.865 95.943 55.578 C 95.943 57.67 95.34 59.622 94.292 61.263" fill="none" vector-effect="non-scaling-stroke" stroke-width="3.812" stroke="rgb(255,255,255)" stroke-linejoin="miter" stroke-linecap="round" stroke-miterlimit="3"/><path d=" M 57.61 100.57 C 56.97 100.75 56.29 100.66 55.71 100.34 C 55.13 100.01 54.71 99.47 54.53 98.83 C 54.35 98.19 54.43 97.51 54.76 96.93 C 55.08 96.36 55.63 95.93 56.26 95.75 C 58.99 94.99 61.81 94.6 64.65 94.59 C 67.45 94.59 70.24 94.99 72.94 95.76 C 73.57 95.94 74.11 96.37 74.44 96.95 C 74.76 97.53 74.84 98.21 74.65 98.85 C 74.47 99.48 74.04 100.02 73.46 100.35 C 72.89 100.67 72.2 100.75 71.56 100.56 C 69.32 99.92 66.99 99.59 64.65 99.59 C 62.27 99.6 59.9 99.93 57.61 100.57 Z " fill="rgb(189,142,89)"/><path d=" M 29.614 53.184 C 29.98 52.937 30.413 52.793 30.868 52.771 C 32.759 52.677 34.66 52.683 36.553 52.79 C 38.283 52.885 39.995 53.092 41.699 53.411 C 43.259 53.695 44.793 54.113 46.29 54.655 C 47.692 55.157 49.048 55.795 50.328 56.562 C 50.888 56.904 51.3 57.463 51.461 58.11 C 51.62 58.746 51.523 59.43 51.182 60 C 50.841 60.57 50.291 60.972 49.645 61.132 C 48.999 61.302 48.324 61.194 47.754 60.854 L 47.754 60.854 C 45.526 58.263 38.189 54.19 29.614 53.184 Z " fill="rgb(189,142,89)"/><path d=" M 28.78 89.67 C 28.31 90.14 27.68 90.41 27.01 90.42 C 26.35 90.42 25.71 90.16 25.24 89.69 C 24.77 89.23 24.5 88.59 24.5 87.93 C 24.5 87.27 24.76 86.63 25.22 86.16 C 26.54 84.82 27.91 83.54 29.33 82.31 C 30.88 80.96 32.51 79.72 34.23 78.6 C 35.98 77.44 37.86 76.48 39.82 75.73 C 41.83 74.98 43.95 74.57 46.09 74.55 C 46.89 74.55 47.69 74.61 48.48 74.73 C 50.41 75.04 52.31 75.51 54.16 76.15 C 55.61 76.66 57 77.33 58.3 78.17 C 58.85 78.53 59.24 79.1 59.38 79.75 C 59.52 80.39 59.4 81.07 59.04 81.63 C 58.68 82.18 58.11 82.58 57.46 82.71 C 56.81 82.85 56.14 82.73 55.58 82.37 C 54.62 81.75 53.59 81.25 52.52 80.87 C 50.95 80.33 49.34 79.93 47.71 79.67 C 47.18 79.59 46.66 79.55 46.13 79.55 C 44.58 79.57 43.04 79.86 41.59 80.41 C 39.97 81.02 38.42 81.81 36.98 82.77 C 35.45 83.77 33.99 84.88 32.61 86.08 C 31.29 87.23 30.01 88.43 28.78 89.67 Z " fill="rgb(255,94,0)"/><path d=" M 64.68 89.32 C 64.68 89.32 64.68 89.32 64.68 89.32 L 64.68 89.32 L 64.68 89.32 C 64.68 89.32 64.68 89.32 64.68 89.32 C 62.84 89.32 61.01 89.5 59.2 89.84 C 57.39 90.18 55.61 90.65 53.87 91.23 C 52.08 91.83 50.32 92.51 48.58 93.25 C 46.78 94.02 44.99 94.82 43.2 95.63 C 41.52 96.4 39.83 97.15 38.13 97.89 C 36.38 98.65 34.6 99.35 32.81 100.01 C 30.95 100.68 29.05 101.27 27.14 101.77 C 25.13 102.29 23.1 102.69 21.04 102.96 C 20.78 102.99 20.52 102.92 20.31 102.76 C 20.09 102.6 19.96 102.36 19.92 102.1 C 19.89 101.83 19.96 101.57 20.12 101.36 C 20.28 101.15 20.52 101.01 20.78 100.97 C 22.76 100.71 24.71 100.33 26.64 99.83 C 28.49 99.35 30.32 98.78 32.12 98.13 C 33.88 97.49 35.62 96.8 37.34 96.05 C 39.02 95.32 40.7 94.58 42.37 93.81 C 44.17 92.99 45.98 92.19 47.79 91.41 C 49.58 90.65 51.39 89.96 53.24 89.34 C 55.06 88.72 56.93 88.23 58.83 87.87 C 60.75 87.51 62.71 87.32 64.68 87.32 C 64.68 87.32 64.68 87.32 64.68 87.32 L 64.68 87.32 C 64.68 87.32 64.68 87.32 64.68 87.32 C 66.54 87.32 68.39 87.5 70.21 87.85 C 72.01 88.19 73.77 88.66 75.5 89.25 C 77.25 89.85 78.98 90.51 80.67 91.24 C 82.41 91.99 84.13 92.76 85.85 93.56 C 87.66 94.39 89.48 95.21 91.31 96 C 93.2 96.81 95.12 97.56 97.06 98.23 C 99.07 98.93 101.13 99.51 103.21 99.97 C 105.41 100.46 107.65 100.8 109.9 100.97 C 110.17 100.99 110.41 101.11 110.59 101.31 C 110.76 101.52 110.85 101.78 110.83 102.04 C 110.81 102.31 110.68 102.55 110.48 102.72 C 110.28 102.9 110.02 102.98 109.75 102.96 C 107.4 102.78 105.07 102.44 102.77 101.93 C 100.62 101.44 98.49 100.84 96.4 100.12 C 94.42 99.43 92.45 98.67 90.52 97.84 C 88.67 97.04 86.83 96.22 85.01 95.37 C 83.31 94.59 81.6 93.82 79.88 93.08 C 78.23 92.37 76.56 91.72 74.86 91.14 C 73.22 90.59 71.54 90.14 69.83 89.81 C 68.14 89.49 66.41 89.32 64.68 89.32 Z " fill="rgb(125,0,0)"/></g></svg>