<?xml version="1.0" encoding="UTF-8" standalone="no"?><!-- Generator: Gravit.io --><svg xmlns="http://www.w3.org/2000/svg" xmlns:xlink="http://www.w3.org/1999/xlink" style="isolation:isolate" viewBox="0 0 128 128" width="128pt" height="128pt"><defs><clipPath id="_clipPath_AbQ1rGN1ApiLgWWFjU77addI1BlDmgZ9"><rect width="128" height="128"/></clipPath></defs><g clip-path="url(#_clipPath_AbQ1rGN1ApiLgWWFjU77addI1BlDmgZ9)"><rect width="128" height="128" style="fill:rgb(49,49,49)" fill-opacity="0"/><circle vector-effect="non-scaling-stroke" cx="63.97816937483379" cy="63.97816937483379" r="63.97816937483379" fill="rgb(201,219,223)"/><circle vector-effect="non-scaling-stroke" cx="63.961609617303615" cy="63.99999798374129" r="53.65963155968166" fill="rgb(251,203,148)" stroke-width="6" stroke="rgb(251,203,148)" stroke-linejoin="miter" stroke-linecap="square" stroke-miterlimit="3"/><g opacity="0.34"><linearGradient id="_lgradient_10" x1="0" y1="0.5" x2="1" y2="0.5" gradientTransform="matrix(80.995,0,0,19.237,23.464,101.638)" gradientUnits="userSpaceOnUse"><stop offset="1.7391304347826086%" stop-opacity="1" style="stop-color:rgb(223,172,113)"/><stop offset="37.826086956521735%" stop-opacity="1" style="stop-color:rgb(128,76,16)"/><stop offset="60.86956521739131%" stop-opacity="1" style="stop-color:rgb(132,80,20)"/><stop offset="98.26086956521739%" stop-opacity="1" style="stop-color:rgb(213,165,110)"/></linearGradient><path d=" M 30.066 102.354 C 34.247 106.082 39.016 109.102 44.19 111.297 C 50.505 113.96 57.3 115.337 64.159 115.328 L 64.159 115.328 C 64.159 115.328 64.159 115.328 64.159 115.328 C 71.019 115.337 77.814 113.96 84.129 111.297 C 89.633 108.962 94.679 105.693 99.052 101.638 L 104.459 104.129 L 104.459 104.129 C 104.432 104.159 104.403 104.187 104.375 104.216 C 99.189 109.402 93.05 113.544 86.292 116.4 C 79.284 119.359 71.759 120.884 64.159 120.875 C 56.56 120.884 49.035 119.359 42.027 116.4 C 35.269 113.544 29.13 109.402 23.944 104.216 C 23.781 104.053 23.619 103.889 23.464 103.72 L 30.066 102.354 L 30.066 102.354 Z " fill="url(#_lgradient_10)"/></g><g opacity="0.34"><linearGradient id="_lgradient_11" x1="-0.017704661182922" y1="0.5" x2="1.000313356835096" y2="0.5" gradientTransform="matrix(113.75,0,0,63.322,7.125,7.125)" gradientUnits="userSpaceOnUse"><stop offset="1.7391304347826086%" stop-opacity="1" style="stop-color:rgb(223,172,113)"/><stop offset="22.908559735346536%" stop-opacity="1" style="stop-color:rgb(128,76,16)"/><stop offset="75.73687088113779%" stop-opacity="1" style="stop-color:rgb(132,80,20)"/><stop offset="98.26086956521739%" stop-opacity="1" style="stop-color:rgb(213,165,110)"/></linearGradient><path d=" M 120.471 70.447 C 120.756 68.314 120.878 66.16 120.875 64 C 120.884 56.401 119.359 48.875 116.4 41.868 C 113.544 35.11 109.402 28.971 104.216 23.784 C 99.624 19.193 94.285 15.42 88.431 12.632 C 87.674 12.271 86.907 11.927 86.132 11.6 C 79.125 8.641 71.599 7.116 64 7.125 C 56.401 7.116 48.875 8.641 41.868 11.6 C 35.11 14.456 28.971 18.598 23.784 23.784 C 18.598 28.971 14.456 35.11 11.6 41.868 C 8.641 48.875 7.116 56.401 7.125 64 C 7.123 66.012 7.228 68.019 7.485 70.007 L 12.957 69.041 C 12.751 67.372 12.67 65.688 12.672 64 C 12.663 57.14 14.04 50.345 16.703 44.031 C 19.291 37.929 23.026 32.392 27.714 27.714 C 32.392 23.026 37.929 19.291 44.031 16.703 C 50.345 14.031 57.14 12.663 64 12.672 C 70.86 12.663 77.655 14.031 83.969 16.703 C 90.071 19.291 95.608 23.026 100.286 27.714 C 104.974 32.392 108.709 37.929 111.297 44.031 C 113.96 50.345 115.337 57.14 115.328 64 C 115.328 64 115.328 64 115.328 64 L 115.328 64 L 115.328 64 C 115.33 65.466 115.269 66.93 115.108 68.381 L 120.471 70.447 L 120.471 70.447 Z  M 120.875 64 C 120.875 64 120.875 64 120.875 64 L 120.875 64 L 120.875 64 Z " fill-rule="evenodd" fill="url(#_lgradient_11)"/></g><path d=" M 125.52 64 M 64 119.52 M 64 125.52 M 64 125.52 M 64 125.52 M 64 125.52 M 64 119.52" fill-rule="evenodd" fill="rgb(130,77,16)"/><linearGradient id="_lgradient_12" x1="0.999999999999998" y1="0.9788901389178489" x2="0.9999999999999981" y2="0.7545978649199951"><stop offset="0%" stop-opacity="0.24" style="stop-color:rgb(87,87,87)"/><stop offset="100%" stop-opacity="1" style="stop-color:rgb(64,64,64)"/></linearGradient><path d=" M 102.75 57.943 L 102.75 57.943 C 110.15 57.943 116.159 63.541 116.159 70.437 L 116.159 129" fill="none" vector-effect="non-scaling-stroke" stroke-width="4" stroke-dasharray="0.5,5" stroke="url(#_lgradient_12)" stroke-linejoin="miter" stroke-linecap="round" stroke-miterlimit="3"/><g opacity="0.4"><path d=" M 8.336 91.041 C 8.418 91.737 8.659 92.42 9.067 93.03 C 10.273 94.549 12.132 95.401 14.07 95.323 C 16.801 94.933 19.273 93.499 20.967 91.322 C 24.556 86.945 28.426 82.807 32.553 78.934 C 36.105 75.782 40.512 73.757 45.217 73.114 C 49.678 72.483 54.219 73.429 58.057 75.788 C 59.96 77.044 61.646 78.601 63.048 80.399 L 63.958 88.399 L 63.958 88.399 C 62.849 88.531 61.74 88.658 60.642 88.861 C 58.284 89.335 56.002 90.135 53.864 91.236 C 46.705 94.39 40.451 99.196 33.587 102.844 C 27.788 106.077 21.184 107.584 14.556 107.188 C 10.791 106.996 7.194 105.563 4.328 103.113 C 1.988 100.875 0.564 97.846 0.333 94.616 C -0.088 92.458 0.074 90.242 0.81 88.201 L 8.336 91.041 L 8.336 91.041 Z " fill="rgb(0,0,0)"/></g><g opacity="0.4"><path d=" M 127.637 89.038 C 128.108 90.846 128.179 92.752 127.815 94.616 C 127.585 97.846 126.161 100.875 123.82 103.113 C 120.954 105.563 117.358 106.996 113.592 107.188 C 106.964 107.584 100.361 106.077 94.561 102.844 C 87.698 99.196 81.444 94.39 74.285 91.236 C 72.146 90.135 69.865 89.335 67.506 88.861 C 66.408 88.658 65.299 88.531 64.19 88.399 L 64.19 88.399 L 65.101 80.399 C 66.503 78.601 68.188 77.044 70.092 75.788 C 73.93 73.429 78.471 72.483 82.932 73.114 C 87.636 73.757 92.044 75.782 95.596 78.934 C 99.722 82.807 103.593 86.945 107.181 91.322 C 108.875 93.499 111.348 94.933 114.078 95.323 C 116.016 95.401 117.875 94.549 119.081 93.03 C 119.765 92.008 119.982 90.777 119.731 89.627 L 127.637 89.038 L 127.637 89.038 Z " fill="rgb(0,0,0)"/></g><path d=" M 47.066 71.015 C 51.569 70.893 55.974 72.346 59.521 75.124 C 61.27 76.587 62.769 78.325 63.959 80.27 C 66.091 76.652 69.366 73.845 73.268 72.294 C 78.121 70.539 83.44 70.57 88.271 72.38 C 92.399 74.037 96.182 76.45 99.425 79.494 C 102.019 81.777 104.42 84.288 107.091 86.493 C 108.465 87.694 110.04 88.643 111.744 89.296 C 114.114 90.045 116.703 89.373 118.41 87.566 C 119.938 85.804 119.828 83.155 118.159 81.525 C 117.622 81.073 116.919 80.869 116.223 80.963 C 115.527 81.057 114.904 81.44 114.506 82.019 C 113.988 83.023 114.076 84.232 114.734 85.151 C 113.201 84.257 112.184 82.688 111.995 80.923 C 111.862 78.82 113.155 76.889 115.15 76.211 C 118.948 74.761 123.248 75.99 125.706 79.229 C 127.663 82.369 128.379 86.126 127.715 89.767 C 127.236 93.209 125.358 96.302 122.523 98.314 C 118.438 100.951 113.623 102.23 108.767 101.966 C 104.169 101.809 99.636 100.835 95.38 99.09 C 88.267 96.232 81.61 92.278 74.264 89.995 C 71.713 89.282 69.121 88.728 66.502 88.337 C 64.539 88.369 62.571 88.269 60.612 88.406 C 58.215 88.61 55.858 89.147 53.609 89.999 C 46.139 92.323 39.382 96.391 32.15 99.24 C 26.022 101.797 19.291 102.548 12.75 101.405 C 9.03 100.788 5.619 98.958 3.048 96.2 C 0.975 93.711 -0.097 90.541 0.039 87.306 C -0.205 84.238 0.698 81.19 2.573 78.75 C 4.491 76.536 7.358 75.38 10.275 75.645 C 12.161 75.695 13.932 76.562 15.129 78.019 C 15.95 79.244 16.156 80.781 15.686 82.178 C 15.151 83.389 14.267 84.413 13.147 85.119 C 13.814 84.213 13.905 83.005 13.38 82.009 C 12.961 81.407 12.297 81.019 11.567 80.95 C 10.836 80.88 10.111 81.136 9.586 81.649 C 8.312 83.024 8.036 85.051 8.897 86.717 C 9.923 88.362 11.674 89.419 13.608 89.561 C 16.365 89.482 18.984 88.336 20.913 86.365 C 24.974 82.422 29.287 78.748 33.825 75.366 C 37.711 72.637 42.319 71.122 47.066 71.015 Z " fill="rgb(219,55,0)"/><path d=" M 71.036 80.27 Q 74.462 78.053 79.88 77.203 C 87.896 75.945 95.771 82.688 100.974 87.916" fill="none" vector-effect="non-scaling-stroke" stroke-width="5" stroke="rgb(255,94,0)" stroke-linejoin="miter" stroke-linecap="round" stroke-miterlimit="3"/><linearGradient id="_lgradient_13" x1="0.21350654318854728" y1="0.19148937064899074" x2="0.8411661176566323" y2="0.7606383068192034" gradientTransform="matrix(35.25,0,0,35.25,67.661,38.125)" gradientUnits="userSpaceOnUse"><stop offset="2.1739130434782608%" stop-opacity="1" style="stop-color:rgb(204,223,230)"/><stop offset="97.82608695652173%" stop-opacity="1" style="stop-color:rgb(153,195,223)"/></linearGradient><linearGradient id="_lgradient_14" x1="0.12308101127365358" y1="0.16666667561352946" x2="0.8748540609190437" y2="0.8971631295142386"><stop offset="3.0434782608695654%" stop-opacity="1" style="stop-color:rgb(136,125,116)"/><stop offset="100%" stop-opacity="1" style="stop-color:rgb(64,64,64)"/></linearGradient><circle vector-effect="non-scaling-stroke" cx="85.28639435260371" cy="55.74999968462308" r="17.625" fill="url(#_lgradient_13)" stroke-width="4" stroke="url(#_lgradient_14)" stroke-linejoin="miter" stroke-linecap="square" stroke-miterlimit="3"/><path d=" M 90.891 64.634 C 90.041 65.171 89.107 65.573 88.122 65.837" fill="none" vector-effect="non-scaling-stroke" stroke-width="3.812" stroke="rgb(255,255,255)" stroke-linejoin="miter" stroke-linecap="round" stroke-miterlimit="3"/><path d=" M 95.706 53.507 C 95.873 54.168 95.943 54.865 95.943 55.578 C 95.943 57.67 95.34 59.622 94.292 61.263" fill="none" vector-effect="non-scaling-stroke" stroke-width="3.812" stroke="rgb(255,255,255)" stroke-linejoin="miter" stroke-linecap="round" stroke-miterlimit="3"/><path d=" M 57.61 100.57 C 56.97 100.75 56.29 100.66 55.71 100.34 C 55.13 100.01 54.71 99.47 54.53 98.83 C 54.35 98.19 54.43 97.51 54.76 96.93 C 55.08 96.36 55.63 95.93 56.26 95.75 C 58.99 94.99 61.81 94.6 64.65 94.59 C 67.45 94.59 70.24 94.99 72.94 95.76 C 73.57 95.94 74.11 96.37 74.44 96.95 C 74.76 97.53 74.84 98.21 74.65 98.85 C 74.47 99.48 74.04 100.02 73.46 100.35 C 72.89 100.67 72.2 100.75 71.56 100.56 C 69.32 99.92 66.99 99.59 64.65 99.59 C 62.27 99.6 59.9 99.93 57.61 100.57 Z " fill="rgb(189,142,89)"/><path d=" M 29.614 53.184 C 29.98 52.937 30.413 52.793 30.868 52.771 C 32.759 52.677 34.66 52.683 36.553 52.79 C 38.283 52.885 39.995 53.092 41.699 53.411 C 43.259 53.695 44.793 54.113 46.29 54.655 C 47.692 55.157 49.048 55.795 50.328 56.562 C 50.888 56.904 51.3 57.463 51.461 58.11 C 51.62 58.746 51.523 59.43 51.182 60 C 50.841 60.57 50.291 60.972 49.645 61.132 C 48.999 61.302 48.324 61.194 47.754 60.854 L 47.754 60.854 C 45.526 58.263 38.189 54.19 29.614 53.184 Z " fill="rgb(189,142,89)"/><path d=" M 56.938 80.27 Q 53.512 78.053 48.094 77.203 C 40.078 75.945 32.203 82.688 27 87.916" fill="none" vector-effect="non-scaling-stroke" stroke-width="5" stroke="rgb(255,94,0)" stroke-linejoin="miter" stroke-linecap="round" stroke-miterlimit="3"/><path d=" M 20.913 101.966 C 38.25 99.703 49.861 88.315 64.681 88.316 C 79.502 88.317 90.984 100.547 109.828 101.966" fill="none" vector-effect="non-scaling-stroke" stroke-width="2" stroke="rgb(125,0,0)" stroke-linejoin="miter" stroke-linecap="round" stroke-miterlimit="3"/></g></svg>