<?xml version="1.0" encoding="UTF-8" standalone="no"?><!-- Generator: Gravit.io --><svg xmlns="http://www.w3.org/2000/svg" xmlns:xlink="http://www.w3.org/1999/xlink" style="isolation:isolate" viewBox="0 0 32 32" width="32pt" height="32pt"><defs><clipPath id="_clipPath_d62R8iqLEtt3bWsytfoaLxajLREVyroL"><rect width="32" height="32"/></clipPath></defs><g clip-path="url(#_clipPath_d62R8iqLEtt3bWsytfoaLxajLREVyroL)"><path d=" M 12.594 19.311 C 13.501 19.287 14.388 19.579 15.102 20.139 C 15.455 20.433 15.757 20.783 15.996 21.175 C 16.425 20.446 17.085 19.881 17.871 19.569 C 18.848 19.216 19.919 19.222 20.892 19.586 C 21.724 19.92 22.485 20.406 23.138 21.019 C 23.661 21.478 24.144 21.984 24.682 22.428 C 24.959 22.67 25.276 22.861 25.619 22.993 C 26.096 23.144 26.618 23.008 26.962 22.644 C 27.269 22.289 27.247 21.756 26.911 21.428 C 26.803 21.337 26.661 21.296 26.521 21.315 C 26.381 21.334 26.256 21.411 26.175 21.527 C 26.071 21.729 26.089 21.973 26.221 22.158 C 25.913 21.978 25.708 21.662 25.67 21.307 C 25.643 20.883 25.903 20.494 26.305 20.358 C 27.07 20.066 27.936 20.313 28.431 20.965 C 28.825 21.598 28.969 22.354 28.835 23.088 C 28.739 23.781 28.361 24.404 27.79 24.809 C 26.967 25.34 25.998 25.597 25.02 25.544 C 24.094 25.513 23.181 25.317 22.324 24.965 C 20.891 24.389 19.551 23.593 18.071 23.133 C 17.558 22.99 17.036 22.878 16.508 22.8 C 16.113 22.806 15.717 22.786 15.322 22.814 C 14.839 22.855 14.365 22.963 13.912 23.134 C 12.408 23.602 11.047 24.422 9.59 24.995 C 8.356 25.51 7.001 25.661 5.684 25.431 C 4.934 25.307 4.247 24.939 3.73 24.383 C 3.312 23.882 3.096 23.243 3.124 22.592 C 3.075 21.974 3.257 21.36 3.634 20.869 C 4.02 20.423 4.598 20.19 5.185 20.244 C 5.565 20.254 5.921 20.428 6.163 20.722 C 6.328 20.968 6.369 21.278 6.275 21.559 C 6.167 21.803 5.989 22.009 5.764 22.152 C 5.898 21.969 5.916 21.726 5.81 21.525 C 5.726 21.404 5.592 21.326 5.445 21.312 C 5.298 21.298 5.152 21.349 5.046 21.453 C 4.79 21.73 4.734 22.138 4.908 22.473 C 5.114 22.805 5.467 23.018 5.856 23.046 C 6.412 23.03 6.939 22.8 7.328 22.403 C 8.145 21.608 9.014 20.869 9.928 20.188 C 10.71 19.638 11.638 19.333 12.594 19.311 Z " fill="rgb(249,119,96)"/><circle vector-effect="non-scaling-stroke" cx="21.84513381467932" cy="11.570827701166703" r="4.407633814679311" fill="none" stroke-width="1.3" stroke="rgb(249,119,96)" stroke-linejoin="miter" stroke-linecap="square" stroke-miterlimit="3"/><path d=" M 19.242 12.058 C 19.214 11.906 19.2 11.747 19.2 11.586 C 19.2 10.315 20.056 9.244 21.229 8.928" fill="none" vector-effect="non-scaling-stroke" stroke-width="0.836" stroke="rgb(249,119,96)" stroke-linejoin="miter" stroke-linecap="round" stroke-miterlimit="3"/><path d=" M 26.175 13.438 L 27.774 14.204 C 29.267 14.921 30.479 16.846 30.479 18.502 L 30.479 30.867" fill="none" vector-effect="non-scaling-stroke" stroke-width="0.8" stroke-dasharray="0.7,1.6" stroke="rgb(249,119,96)" stroke-linejoin="round" stroke-linecap="round" stroke-miterlimit="3"/></g></svg>